<svg width="30" height="30" viewBox="0 0 30 30" fill="none" xmlns="http://www.w3.org/2000/svg">
<path fill-rule="evenodd" clip-rule="evenodd" d="M8.25 0C9.07843 0 9.75 0.639593 9.75 1.42857V2.85714H20.25V1.42857C20.25 0.639593 20.9216 0 21.75 0C22.5784 0 23.25 0.639593 23.25 1.42857V2.89241C27.04 3.25079 30 6.29618 30 10V22.8571C30 26.802 26.6421 30 22.5 30H7.5C3.35786 30 0 26.802 0 22.8571V10C0 6.29618 2.96001 3.25079 6.75 2.89241V1.42857C6.75 0.639593 7.42157 0 8.25 0ZM3.25606 8.57143H26.7439C26.1262 6.90687 24.4593 5.71429 22.5 5.71429H7.5C5.54067 5.71429 3.87381 6.90687 3.25606 8.57143ZM27 11.4286H3V22.8571C3 25.2241 5.01472 27.1429 7.5 27.1429H22.5C24.9853 27.1429 27 25.2241 27 22.8571V11.4286ZM6 15.7143C6 14.9253 6.67157 14.2857 7.5 14.2857H22.5C23.3284 14.2857 24 14.9253 24 15.7143C24 16.5033 23.3284 17.1429 22.5 17.1429H7.5C6.67157 17.1429 6 16.5033 6 15.7143Z" fill="black"/>
</svg>
